 <svg version="1.0" xmlns="http://www.w3.org/2000/svg" width="700.000000pt" height="245.000000pt" viewBox="0 0 700.000000 245.000000" preserveAspectRatio="xMidYMid meet">
<metadata>
Created by potrace 1.12, written by Peter Selinger 2001-2015
</metadata>
<g transform="translate(0.000000,245.000000) scale(0.100000,-0.100000)" fill="#000000" stroke="none">
<path d="M270 1629 c-158 -40 -245 -77 -255 -108 -3 -11 1 -33 9 -48 15 -30
119 -133 261 -258 94 -83 272 -258 340 -335 22 -25 86 -97 141 -160 150 -170
337 -348 435 -413 165 -109 397 -205 603 -248 113 -24 326 -41 426 -33 108 7
301 42 400 71 275 80 347 124 460 278 129 178 189 255 232 298 l47 47 140 0
c206 0 193 8 345 -219 177 -265 194 -284 279 -325 130 -62 347 -125 555 -160
129 -22 322 -20 452 4 96 18 123 24 215 49 143 39 347 144 502 256 45 33 170
151 293 279 257 264 459 465 684 681 179 172 191 191 141 228 -39 28 -141 63
-255 87 -96 20 -123 22 -310 17 -174 -5 -333 -20 -525 -51 -16 -3 -66 -10
-110 -16 -140 -20 -405 -69 -620 -115 -178 -38 -634 -138 -735 -161 -109 -25
-315 -73 -405 -94 -429 -102 -419 -100 -593 -70 -147 26 -232 45 -1002 234
-666 163 -756 184 -970 225 -300 58 -562 81 -890 80 -176 -1 -229 -4 -290 -20z
m230 -234 c0 -8 -4 -15 -9 -15 -13 0 -22 16 -14 24 11 11 23 6 23 -9z m-220
-26 c0 -20 -15 -26 -25 -9 -9 15 3 43 15 35 5 -3 10 -15 10 -26z m490 16 c0
-8 -7 -15 -15 -15 -16 0 -20 12 -8 23 11 12 23 8 23 -8z m5780 -5 c0 -5 -2
-10 -4 -10 -3 0 -8 5 -11 10 -3 6 -1 10 4 10 6 0 11 -4 11 -10z m-215 -10 c-3
-5 -13 -10 -21 -10 -8 0 -14 5 -14 10 0 6 9 10 21 10 11 0 17 -4 14 -10z
m-4890 -35 c258 -25 471 -70 950 -199 403 -109 633 -221 693 -338 31 -61 25
-100 -36 -209 -83 -150 -208 -252 -409 -339 -155 -66 -290 -90 -508 -90 -217
0 -367 27 -533 96 -350 145 -571 329 -697 582 -51 101 -65 156 -65 256 0 118
20 155 105 197 118 58 244 69 500 44z m4570 -45 c73 -11 147 -47 165 -80 17
-31 12 -169 -9 -240 -26 -92 -93 -222 -156 -306 -116 -151 -293 -302 -447
-380 -99 -50 -292 -111 -423 -134 -105 -18 -405 -8 -520 18 -264 60 -439 151
-574 298 -142 156 -149 256 -24 375 78 76 222 156 353 198 91 29 216 63 335
91 72 17 157 37 190 45 65 16 243 53 315 66 25 4 86 15 135 24 178 32 519 45
660 25z m385 -120 c0 -5 -5 -10 -11 -10 -5 0 -7 5 -4 10 3 6 8 10 11 10 2 0 4
-4 4 -10z m-5732 -209 c3 -8 -1 -12 -9 -9 -7 2 -15 10 -17 17 -3 8 1 12 9 9 7
-2 15 -10 17 -17z m5717 -2 c-4 -5 -13 -9 -22 -9 -13 0 -13 3 -3 15 13 15 35
11 25 -6z"></path>
</g>
</svg>