 <svg version="1.0" xmlns="http://www.w3.org/2000/svg" width="700.000000pt" height="729.000000pt" viewBox="0 0 700.000000 729.000000" preserveAspectRatio="xMidYMid meet">
<metadata>
Created by potrace 1.12, written by Peter Selinger 2001-2015
</metadata>
<g transform="translate(0.000000,729.000000) scale(0.100000,-0.100000)" fill="#000000" stroke="none">
<path d="M4150 7275 c-7 -8 -29 -15 -49 -15 -28 0 -44 -7 -64 -28 -15 -15 -27
-34 -27 -41 0 -7 -21 -32 -46 -55 -53 -49 -67 -95 -58 -186 5 -44 3 -59 -10
-69 -9 -7 -16 -18 -16 -23 0 -5 -12 -28 -28 -51 -62 -94 -67 -112 -69 -262 -1
-77 -2 -145 -3 -151 0 -18 -111 -57 -185 -65 -123 -14 -169 -25 -230 -59 -33
-18 -67 -38 -75 -45 -8 -7 -35 -23 -60 -35 -24 -13 -56 -30 -70 -40 -14 -9
-56 -37 -94 -60 -107 -68 -123 -107 -146 -345 -6 -60 -15 -128 -20 -150 -5
-22 -10 -59 -10 -82 0 -31 -6 -46 -23 -60 -67 -54 -83 -121 -46 -193 20 -38
21 -45 9 -177 -10 -117 -9 -154 4 -242 16 -106 51 -202 84 -228 9 -8 34 -25
55 -39 20 -13 37 -28 37 -33 0 -5 -39 -35 -87 -67 -49 -31 -108 -74 -133 -93
-90 -73 -402 -280 -520 -347 -47 -26 -96 -54 -110 -63 -14 -8 -62 -34 -108
-58 -46 -23 -89 -46 -95 -51 -16 -13 -239 -125 -302 -152 -27 -12 -75 -33
-105 -48 -30 -14 -89 -37 -130 -52 -41 -15 -118 -44 -170 -65 -52 -20 -120
-46 -150 -57 -30 -11 -69 -26 -85 -33 -80 -36 -277 -85 -408 -102 -48 -6 -131
12 -204 43 -17 8 -35 14 -40 14 -5 0 -77 65 -160 145 -115 110 -157 145 -177
145 -30 0 -36 -29 -11 -50 8 -7 15 -18 15 -25 0 -16 62 -170 100 -250 72 -151
120 -257 120 -265 0 -4 14 -20 31 -34 36 -31 89 -34 184 -12 110 26 220 37
265 27 94 -21 91 -66 -8 -115 -37 -19 -111 -56 -165 -84 -54 -28 -108 -52
-120 -54 -14 -2 -22 -10 -22 -23 0 -34 62 -20 155 35 8 5 36 18 62 30 27 12
50 26 54 31 3 5 13 9 23 9 10 0 24 7 31 15 7 8 27 17 46 21 19 3 37 10 40 15
3 5 49 6 102 3 78 -5 104 -4 127 9 48 25 82 67 120 152 31 66 36 87 31 123 -7
49 -19 40 149 99 100 35 128 44 260 81 136 39 380 82 565 102 285 30 323 37
510 94 46 15 90 24 98 21 9 -3 4 -19 -18 -59 -17 -30 -33 -75 -36 -102 -6 -53
30 -275 65 -407 32 -120 87 -412 131 -688 69 -443 72 -1396 5 -1814 -34 -208
-105 -317 -255 -387 -101 -48 -221 -98 -235 -98 -5 0 -22 -6 -36 -14 -14 -7
-37 -16 -52 -20 -30 -7 -34 -23 -14 -50 14 -19 40 -19 427 2 96 6 199 10 228
11 73 1 84 16 106 137 26 144 43 208 70 267 28 62 47 80 77 75 40 -6 53 -101
58 -430 1 -71 3 -78 21 -78 19 0 20 6 18 238 l-1 237 44 90 c39 79 44 98 44
155 -1 106 -58 186 -176 246 l-52 26 6 226 c5 208 27 422 56 556 5 22 19 86
31 141 21 100 74 308 90 355 24 69 50 263 50 376 0 122 -28 306 -50 328 -10
10 -14 66 -5 66 3 0 22 -10 43 -23 78 -47 193 -112 302 -170 179 -94 611 -307
624 -307 3 0 33 -13 68 -29 119 -54 228 -87 356 -105 71 -10 99 -19 117 -36
20 -18 35 -23 87 -23 107 0 231 14 278 31 72 25 156 88 216 160 63 77 85 118
115 221 19 64 21 89 16 195 -3 72 -14 149 -25 191 -25 91 -102 291 -147 380
-19 39 -35 78 -35 88 0 32 -21 60 -105 143 -77 75 -84 85 -95 139 -11 54 -10
67 14 159 40 154 41 155 90 256 25 52 46 104 46 115 1 26 38 71 49 59 5 -5 25
-58 44 -119 54 -166 128 -372 160 -446 9 -21 19 -54 23 -75 8 -46 40 -121 55
-130 11 -7 79 -145 79 -161 0 -5 15 -44 33 -88 19 -44 55 -143 81 -220 42
-127 51 -144 90 -180 89 -82 115 -158 136 -405 11 -127 33 -234 53 -259 27
-33 211 -161 245 -172 52 -15 87 -9 87 16 0 13 -23 35 -70 68 -96 66 -125 95
-125 128 0 38 20 51 50 34 14 -8 66 -35 116 -61 94 -47 102 -56 128 -137 8
-26 38 -17 54 16 7 15 19 27 26 27 8 0 47 -20 88 -45 94 -56 131 -65 161 -37
12 11 31 22 41 24 51 9 10 60 -147 183 -57 45 -98 86 -115 115 -14 25 -43 71
-64 102 -21 31 -38 61 -38 67 0 15 -56 58 -128 97 -93 51 -116 76 -172 180
-45 83 -49 93 -38 121 10 27 7 38 -25 104 -42 86 -50 113 -128 433 -10 44 -32
105 -48 135 -15 31 -38 97 -50 146 -20 82 -52 172 -101 280 -43 98 -64 144
-93 205 -32 66 -34 81 -44 254 -4 88 -3 104 17 142 14 29 30 46 46 50 16 4 26
15 30 33 3 14 9 34 15 43 5 10 9 26 9 36 0 10 6 27 14 38 28 37 31 -13 7 -117
-17 -77 -19 -103 -11 -119 17 -32 35 -18 38 31 2 24 7 48 13 54 15 15 11 166
-5 184 -10 11 -12 33 -9 73 6 60 23 71 23 15 0 -18 7 -41 15 -51 8 -11 15 -27
15 -36 0 -8 14 -32 31 -53 28 -33 29 -39 16 -57 -10 -14 -13 -36 -9 -65 3 -31
0 -52 -12 -69 -17 -26 -22 -76 -8 -76 5 0 16 19 25 43 10 23 24 55 32 70 11
20 12 34 5 47 -7 13 -6 21 5 30 21 17 21 219 1 258 -10 20 -12 39 -6 72 12 62
12 140 0 140 -5 0 -10 -6 -10 -12 0 -9 -4 -8 -10 2 -5 8 -7 35 -4 60 9 74 -50
174 -192 330 -28 30 -59 71 -70 90 -10 19 -38 61 -61 92 -24 31 -43 59 -43 63
0 12 -144 155 -156 155 -22 0 -94 103 -165 235 -19 35 -78 113 -116 153 -7 7
-13 17 -13 21 0 4 -29 43 -65 86 -58 70 -66 83 -63 114 3 32 8 37 41 45 29 8
40 6 55 -7 10 -9 26 -17 34 -17 9 0 21 -7 28 -15 7 -8 20 -15 30 -15 10 0 23
-7 30 -15 7 -8 17 -15 23 -15 18 0 134 -109 185 -173 80 -101 122 -166 122
-187 0 -11 5 -20 10 -20 28 0 -24 136 -65 170 -8 7 -15 19 -15 27 0 19 -178
196 -217 215 -15 8 -49 27 -75 41 -26 15 -55 27 -65 27 -10 0 -27 7 -37 15
-11 8 -39 15 -62 15 -24 0 -45 4 -48 9 -3 5 -30 10 -59 13 -45 4 -64 12 -113
50 -32 25 -70 51 -84 58 -26 14 -90 62 -177 132 -54 43 -103 68 -132 68 -20 0
-138 56 -146 70 -8 13 -65 13 -65 1 0 -19 -41 -23 -65 -7 -31 20 -59 20 -75 1z
m779 -459 c35 -37 21 -52 -17 -18 -17 16 -32 32 -32 35 0 15 28 5 49 -17z
m-1107 -506 c20 -34 10 -44 -32 -35 -34 8 -41 38 -12 54 24 15 25 14 44 -19z
m-22 -92 c16 -6 32 -5 47 3 20 11 26 10 42 -7 9 -10 26 -38 36 -62 18 -42 18
-45 1 -70 -36 -55 -76 -153 -76 -185 0 -58 30 -151 57 -179 32 -34 74 -37 110
-8 30 23 53 64 53 91 0 27 16 24 60 -11 27 -22 44 -47 59 -88 33 -95 46 -126
56 -142 20 -30 75 -164 75 -181 0 -11 -14 -26 -31 -35 -26 -13 -36 -14 -62 -3
-20 8 -74 13 -142 13 -109 1 -111 0 -180 -38 -88 -48 -114 -68 -246 -186 -116
-103 -183 -161 -205 -173 -8 -4 -27 -1 -45 9 -21 10 -42 14 -63 9 -74 -15 -79
-13 -88 29 -6 26 -20 49 -40 66 -23 19 -32 38 -39 75 -15 97 -11 146 17 186
31 46 35 100 10 128 -10 11 -38 30 -62 42 l-44 21 0 79 c0 136 49 319 85 319
9 0 27 -7 41 -16 27 -18 71 -16 161 10 28 8 86 20 130 26 43 7 97 20 121 31
23 10 51 19 62 19 10 0 21 4 24 8 8 13 -5 52 -17 52 -5 0 -20 11 -33 25 -13
14 -22 25 -20 25 1 0 30 -14 64 -31 73 -36 115 -42 120 -17 2 12 -5 21 -20 27
-41 15 -188 130 -188 147 0 14 10 15 73 9 39 -4 83 -12 97 -17z m-284 -129
c70 -32 45 -56 -61 -58 -52 -1 -75 11 -75 39 0 44 63 53 136 19z m482 -128
c-2 -28 -7 -36 -23 -36 -16 0 -21 8 -23 39 -2 21 -1 45 3 53 5 14 8 13 26 -3
14 -13 19 -28 17 -53z m617 -52 c11 -34 66 -89 89 -89 11 0 36 -10 55 -23 19
-12 42 -27 50 -32 9 -6 44 -29 79 -53 35 -23 70 -42 78 -42 27 0 54 -20 54
-39 0 -14 -10 -21 -37 -26 -21 -4 -42 -10 -48 -15 -5 -4 -35 -13 -67 -19 -73
-15 -110 -1 -181 71 -80 81 -147 237 -118 272 18 22 38 20 46 -5z m-615 -64
c0 -9 -9 -15 -25 -15 -24 0 -32 10 -18 23 12 13 43 7 43 -8z m18 -60 c6 -6
-23 -45 -37 -50 -20 -8 -61 22 -61 44 0 16 6 18 48 13 26 -2 48 -6 50 -7z
m1962 -231 c0 -8 -4 -12 -10 -9 -5 3 -10 10 -10 16 0 5 5 9 10 9 6 0 10 -7 10
-16z m40 -60 c0 -27 -15 -32 -24 -8 -11 28 -7 44 9 38 8 -4 15 -17 15 -30z
m-355 -584 c8 -13 -5 -61 -16 -54 -12 7 -12 64 0 64 6 0 12 -4 16 -10z m-1739
-141 c38 -23 38 -24 23 -119 -10 -58 -9 -79 6 -142 18 -75 51 -147 82 -183 31
-34 105 -91 168 -128 65 -38 265 -228 288 -274 19 -38 52 -171 45 -179 -13
-13 -77 18 -107 51 -33 37 -50 42 -82 25 -14 -8 -28 -7 -53 5 -36 17 -253 178
-358 267 -85 70 -135 111 -180 145 -20 15 -81 62 -135 103 -102 79 -237 168
-288 192 -50 23 -37 39 55 68 47 15 105 36 130 48 79 36 142 62 151 62 4 0 31
13 58 30 90 53 146 61 197 29z m1798 -104 c6 -17 -2 -45 -14 -45 -4 0 -10 7
-14 15 -6 17 2 45 14 45 4 0 10 -7 14 -15z m-2555 -782 c50 -28 36 -47 -37
-49 -68 -3 -79 9 -42 46 25 25 40 25 79 3z"></path>
<path d="M5120 6795 c0 -8 9 -15 19 -15 11 0 23 -5 26 -10 4 -6 21 -17 38 -25
40 -18 58 -30 128 -82 58 -43 169 -159 169 -176 0 -5 14 -26 30 -47 17 -21 30
-42 30 -47 0 -6 9 -18 20 -28 11 -10 20 -24 20 -32 0 -7 5 -13 10 -13 19 0 12
31 -22 90 -4 8 -11 22 -15 30 -14 31 -120 157 -180 214 -59 56 -83 74 -130 95
-11 5 -24 15 -28 20 -3 6 -14 11 -24 11 -10 0 -24 7 -31 15 -7 8 -23 15 -36
15 -15 0 -24 -6 -24 -15z"></path>
<path d="M5226 6621 c-4 -5 -2 -12 3 -15 5 -4 12 -2 15 3 4 5 2 12 -3 15 -5 4
-12 2 -15 -3z"></path>
<path d="M5670 6325 c0 -16 6 -25 15 -25 16 0 19 9 9 34 -9 25 -24 19 -24 -9z"></path>
<path d="M5630 6271 c0 -10 7 -24 15 -31 8 -7 15 -22 15 -35 0 -12 9 -30 20
-40 11 -10 20 -26 20 -37 0 -10 5 -18 10 -18 19 0 22 29 6 52 -9 12 -16 29
-16 37 0 18 -49 91 -61 91 -5 0 -9 -8 -9 -19z"></path>
<path d="M5830 4800 c0 -5 5 -10 10 -10 6 0 10 5 10 10 0 6 -4 10 -10 10 -5 0
-10 -4 -10 -10z"></path>
<path d="M5857 4743 c-4 -3 -7 -19 -7 -35 0 -26 3 -29 27 -26 34 4 43 36 17
55 -20 15 -28 16 -37 6z"></path>
</g>
</svg>